<?xml version="1.0" encoding="utf-8"?>
<svg xmlns="http://www.w3.org/2000/svg" fill="none" height="48" viewBox="0 0 48 48" width="48">
  <path d="M16 44.5C13.52 44.5 11.5 42.48 11.5 40V8C11.5 5.52 13.52 3.5 16 3.5H32C34.48 3.5 36.5 5.52 36.5 8V40C36.5 42.48 34.48 44.5 32 44.5H16Z" fill="#FF2F54"/>
  <path d="M32 5C33.66 5 35 6.34 35 8V40C35 41.66 33.66 43 32 43H16C14.34 43 13 41.66 13 40V8C13 6.34 14.34 5 16 5H32ZM32 2H16C12.68 2 10 4.68 10 8V40C10 43.32 12.68 46 16 46H32C35.32 46 38 43.32 38 40V8C38 4.68 35.32 2 32 2Z" fill="#F3F4F5"/>
</svg>