<?xml version="1.0" encoding="utf-8"?>
<svg xmlns="http://www.w3.org/2000/svg" fill="none" height="48" viewBox="0 0 48 48" width="48">
  <path d="M24.56 28.66C24.24 28.42 23.78 28.42 23.44 28.66L20.74 30.62C20.4 30.86 20.26 31.3 20.4 31.68L21.42 34.84C21.56 35.24 21.92 35.5 22.34 35.5H25.68C26.1 35.5 26.46 35.24 26.6 34.84L27.62 31.68C27.76 31.28 27.6 30.86 27.28 30.62L24.56 28.66Z" fill="white"/>
  <path d="M31.9 22.98C31.7 22.8 31.48 22.64 31.28 22.46C31.22 22.44 31.18 22.4 31.12 22.38C30.14 21.64 29.06 21.08 27.9 20.66C26.68 20.24 25.38 20 24 20C22.62 20 21.32 20.24 20.1 20.66C18.92 21.08 17.86 21.64 16.88 22.38C16.84 22.4 16.78 22.44 16.72 22.46C16.5 22.62 16.3 22.78 16.1 22.96C16.06 23 16.02 23.04 15.96 23.1C15.3 23.72 14.7 24.36 14.18 25.1C12.8 27.04 12 29.42 12 32C12 32.74 12.06 33.44 12.2 34.14C12.2 34.16 12.2 34.16 12.2 34.18C12.24 34.44 12.3 34.7 12.38 34.96C12.42 35.04 12.44 35.14 12.46 35.2C12.52 35.46 12.6 35.7 12.68 35.96C12.7 36.02 12.72 36.1 12.74 36.16C12.82 36.42 12.94 36.68 13.04 36.92V36.94C14.06 39.18 15.74 41.02 17.84 42.28C14.34 42.64 12 43.28 12 44C12 45.1 17.38 46 24 46C30.62 46 36 45.1 36 44C36 43.26 33.64 42.64 30.12 42.28C32.2 41.04 33.88 39.18 34.9 36.96V36.94C35 36.7 35.12 36.44 35.2 36.18C35.22 36.12 35.24 36.04 35.26 35.98C35.34 35.74 35.44 35.48 35.5 35.24C35.52 35.16 35.54 35.08 35.56 35C35.62 34.74 35.7 34.48 35.74 34.22C35.74 34.2 35.74 34.18 35.74 34.18C35.9 33.52 35.96 32.9 35.98 32.24C35.98 32.18 35.98 32.1 35.98 32.02C35.98 28.48 34.44 25.32 32 23.12C31.98 23.06 31.94 23.02 31.9 22.98ZM34.22 32C34.2 32.24 34.2 32.46 34.18 32.7L32 34.26C31.66 34.5 31.5 34.96 31.62 35.38L32.38 37.76C30.98 39.78 28.88 41.28 26.44 41.88L24.56 40.5C24.22 40.24 23.74 40.24 23.38 40.5L21.48 41.88C19.04 41.26 16.94 39.78 15.56 37.76L16.32 35.38C16.46 34.96 16.3 34.5 15.94 34.26L13.78 32.68C13.82 32.46 13.78 32.24 13.78 32C13.78 29.76 14.52 27.66 15.76 25.98H18.66C19.1 25.98 19.46 25.7 19.62 25.28L20.56 22.4C21.64 22.02 22.8 21.82 24 21.82C25.2 21.82 26.36 22.04 27.42 22.44L28.36 25.3C28.5 25.72 28.88 26 29.32 26H32.22C33.46 27.66 34.22 29.76 34.22 32Z" fill="white"/>
  <path d="M40.5 2H7.5C4.48 2 2 4.16 2 6.82V24.72C2 25.42 2.62 26 3.38 26C4.14 26 4.76 25.42 4.76 24.72V6.82C4.76 5.58 6 4.58 7.5 4.58H40.5C42 4.58 43.24 5.6 43.24 6.82V24.72C43.24 25.42 43.86 26 44.62 26C45.4 26 46 25.42 46 24.72V6.82C46 4.16 43.52 2 40.5 2Z" fill="white"/>
</svg>