<?xml version="1.0" encoding="utf-8"?>
<svg xmlns="http://www.w3.org/2000/svg" fill="none" viewBox="0 0 22 22">
  <path d="M10.4608 7.799L7.8758 9.68c-.319.231-.451.649-.33 1.023l.99 3.047c.121.374.473.638.869.638h3.201c.396 0 .748-.253.869-.638l.99-3.047c.121-.374-.011-.792-.33-1.023l-2.585-1.881c-.33-.231-.77-.231-1.089 0z" fill="#F3F4F5"/>
  <path clip-rule="evenodd" d="M11 22c3.8761 0 7.286-2.0081 9.2454-5.0401 1.0786-1.6641 1.717-3.6359 1.7548-5.7619l-.0019-.0013c.0011-.0655.0017-.131.0017-.1967 0-6.072-4.928-11-11-11S0 4.928 0 11s4.928 11 11 11zm3.1233-19.8144C13.1463 1.8388 12.095 1.65 11 1.65c-1.098 0-2.152.1898-3.1313.5384L7.0072 4.84a.9076.9076 0 01-.869.638H3.457C2.3212 7.026 1.65 8.9354 1.65 11c0 .2109.007.4203.0208.6277l2.003 1.4513c.319.231.451.649.33 1.023l-.7112 2.1888c1.271 1.8468 3.1883 3.2153 5.4238 3.7776l1.7446-1.2694c.319-.231.759-.231 1.078 0l1.7577 1.2661c2.2342-.5654 4.1496-1.9365 5.4182-3.7852l-.7077-2.1779c-.121-.374.011-.792.33-1.023l1.9919-1.4493A9.4504 9.4504 0 0020.35 11c0-2.0548-.6648-3.956-1.7909-5.5h-2.6973c-.396 0-.748-.264-.869-.638l-.8695-2.6764z" fill="#F3F4F5" fill-rule="evenodd"/>
</svg>